<svg t="1709373228889" class="icon" viewBox="0 0 1026 1024" version="1.1" xmlns="http://www.w3.org/2000/svg" p-id="5407" width="48" height="48"><path d="M520.704 477.696c28.672 0 51.712 23.04 51.712 51.712s-23.04 51.712-51.712 51.712-51.712-23.04-51.712-51.712c0-28.16 23.04-51.712 51.712-51.712z m0-69.12c66.56 0 120.832 54.272 120.832 120.832S587.264 650.24 520.704 650.24s-120.832-54.272-120.832-120.832 54.272-120.832 120.832-120.832zM651.776 261.12c-39.424-19.456-83.968-30.208-131.072-30.208-13.824 0-27.136 1.024-40.448 2.56L460.8 134.144c23.04-11.264 38.4-34.816 38.4-61.952 0-37.888-30.72-69.12-69.12-69.12-37.888 0-69.12 30.72-69.12 69.12 0 36.864 29.184 67.584 66.048 69.12l19.456 98.816c-50.688 12.8-96.768 38.912-133.12 74.24l-39.424-36.352c1.024-3.584 1.536-7.168 1.536-10.752 0-21.504-17.408-38.912-38.912-38.912-21.504 0-38.912 17.408-38.912 38.912s17.408 38.912 38.912 38.912c5.12 0 9.728-1.024 13.824-2.56l39.424 36.352c-28.16 34.304-48.64 74.752-59.392 118.784l-33.28-6.144c-4.096-24.576-25.088-44.032-51.2-44.032-28.672 0-51.712 23.04-51.712 51.712S117.248 512 145.92 512c18.944 0 35.84-10.24 45.056-26.112l33.28 6.144c-1.536 12.288-2.56 24.576-2.56 36.864 0 51.712 13.312 100.352 36.352 142.336l-141.312 87.552c-12.288-11.776-29.184-18.944-47.616-18.944-38.4 0-69.12 31.232-69.12 69.12s30.72 69.12 69.12 69.12 69.12-31.232 69.12-69.12c0-7.168-1.024-14.336-3.072-20.48l141.312-87.552c9.728 14.336 20.992 27.648 33.28 39.424 28.672 28.672 63.488 51.712 101.888 67.072l-35.84 110.08c-28.16 0.512-50.688 23.552-50.688 51.712 0 28.672 23.04 51.712 51.712 51.712s51.712-23.04 51.712-51.712c0-16.896-8.192-31.744-19.968-40.96l35.84-110.08c24.576 6.656 50.176 9.728 76.288 9.728 11.776 0 23.04-0.512 34.304-2.048l3.072 15.872c-9.728 7.168-15.872 18.432-15.872 31.232 0 21.504 17.408 38.912 38.912 38.912s38.912-17.408 38.912-38.912c0-17.408-11.776-32.256-27.648-37.376l-3.072-15.872c50.688-11.776 95.744-36.352 133.12-70.144l81.92 80.384c-5.632 10.24-9.216 22.016-9.216 34.304 0 37.888 30.72 69.12 69.12 69.12s69.12-30.72 69.12-69.12c0-37.888-30.72-69.12-69.12-69.12-13.312 0-25.6 3.584-35.84 10.24l-81.92-80.384c42.496-48.64 69.12-110.592 73.216-179.2h105.984c7.168 19.968 26.112 34.304 48.64 34.304 28.672 0 51.712-23.04 51.712-51.712s-23.04-51.712-51.712-51.712c-22.528 0-41.472 14.336-48.64 34.304H819.2c-4.096-67.584-30.208-129.536-71.68-177.664L909.824 176.64c7.168 3.584 14.848 5.632 23.04 5.632 28.672 0 51.712-23.04 51.712-51.712s-23.04-51.712-51.712-51.712-51.712 23.04-51.712 51.712c0 7.68 1.536 14.848 4.608 21.504L723.456 308.736c-12.8-11.776-26.624-22.528-41.472-31.744l44.032-78.336c3.072 0.512 6.144 1.024 9.216 1.024 28.672 0 51.712-23.04 51.712-51.712s-23.04-51.712-51.712-51.712-51.712 23.04-51.712 51.712c0 13.312 5.12 25.088 12.8 34.304l-44.544 78.848z" fill="currentColor" p-id="5408"></path></svg>