<svg t="1709373171424" class="icon" viewBox="0 0 1027 1024" version="1.1" xmlns="http://www.w3.org/2000/svg" p-id="3366" width="48" height="48"><path d="M781.48938 1024a40.820671 40.820671 0 0 1-20.259148-5.442756l-205.010484-118.379948a40.820671 40.820671 0 0 1-20.410335-35.226727V628.190674a40.820671 40.820671 0 0 1 20.259148-35.07554l205.161671-118.531135a41.123047 41.123047 0 0 1 40.518296 0l205.161671 118.531135a40.518296 40.518296 0 0 1 20.259148 35.07554v236.759895a40.669484 40.669484 0 0 1-20.259148 35.226727L801.294965 1018.557244a39.913545 39.913545 0 0 1-19.805585 5.442756zM581.165714 861.775628l200.323666 115.658569L982.720172 861.775628V630.912052l-201.230792-115.809757-200.323666 115.809757z" fill="currentColor" p-id="3367"></path><path d="M907.126335 738.104112v88.2936l-77.559275 42.786112v-88.293601L907.126335 738.104112m33.261288-68.18564a15.118767 15.118767 0 0 0-5.593944 1.209501l-143.930663 79.373528a11.339075 11.339075 0 0 0-6.50107 10.280762v165.096938a11.792638 11.792638 0 0 0 12.095013 11.490263 12.095014 12.095014 0 0 0 5.442757-1.360689l143.930664-79.22234A11.490263 11.490263 0 0 0 952.482637 846.656861V681.408735a11.943826 11.943826 0 0 0-12.095014-11.490263zM245.68027 1024a40.367108 40.367108 0 0 1-20.259148-5.442756L20.25945 900.177296A40.669484 40.669484 0 0 1 0.000302 864.950569V628.190674a40.215921 40.215921 0 0 1 20.259148-35.07554l205.161672-118.531135a41.123047 41.123047 0 0 1 40.518296 0l205.161671 118.531135a40.518296 40.518296 0 0 1 20.259148 35.07554v236.759895a40.971859 40.971859 0 0 1-20.259148 35.226727l-205.161671 118.379948a40.367108 40.367108 0 0 1-20.259148 5.442756z m-2.419003-45.356302zM45.356604 861.775628l200.474853 115.658569L446.003935 861.775628V630.912052l-200.323665-115.809757L45.356604 630.912052z" fill="currentColor" p-id="3368"></path><path d="M371.317225 738.104112v88.2936l-77.710463 42.786112v-88.293601l77.710463-42.786111m33.1101-68.18564a14.211641 14.211641 0 0 0-5.442756 1.209501l-143.930664 79.373528a11.490263 11.490263 0 0 0-6.652257 10.280762v165.096938a11.792638 11.792638 0 0 0 12.095014 11.490263 11.641451 11.641451 0 0 0 5.442756-1.360689l144.081851-79.22234a11.490263 11.490263 0 0 0 6.50107-10.280762V681.408735a11.792638 11.792638 0 0 0-12.095014-11.490263zM514.945514 554.713466a41.274235 41.274235 0 0 1-20.259148-5.291569L289.524695 430.890762a40.669484 40.669484 0 0 1-20.259148-35.07554V158.90414a40.669484 40.669484 0 0 1 20.259148-35.07554L494.535178 5.448653a40.669484 40.669484 0 0 1 40.669484 0L740.819896 123.8286a40.669484 40.669484 0 0 1 20.259148 35.07554v236.911082A40.669484 40.669484 0 0 1 740.819896 430.890762l-205.766422 118.531135a41.274235 41.274235 0 0 1-20.10796 5.291569zM314.470661 393.093844l200.474853 115.658569L715.269179 393.093844V161.625518L514.945514 45.362198 314.470661 161.625518z" fill="currentColor" p-id="3369"></path><path d="M640.582469 268.817577v88.444789l-77.710463 42.786111v-88.444788l77.710463-42.786112m33.110101-68.18564a12.699764 12.699764 0 0 0-5.593944 1.360689l-143.930664 79.373528a11.490263 11.490263 0 0 0-6.50107 10.129574V456.592666a12.246201 12.246201 0 0 0 17.53777 10.280762l143.930664-79.373528a11.339075 11.339075 0 0 0 6.652257-10.129574V211.668637a11.792638 11.792638 0 0 0-12.095013-11.490263z" fill="currentColor" p-id="3370"></path></svg>