<svg t="1709454557581" class="icon" viewBox="0 0 1024 1024" version="1.1" xmlns="http://www.w3.org/2000/svg" p-id="6308" width="200" height="200"><path d="M500.5 51.36c40.29-9.67 85.04 12.7 101.43 50.76 19.03 39.73 3.03 91.83-35.14 113.87-35.32 22.54-85.6 15.17-113.29-16.13-27.09-28.98-31.18-76.16-9.21-109.25 12.54-19.87 33.29-34.2 56.21-39.25zM776.05 431.73c25.19-9.25 55.14 9.75 57.58 36.41 3.76 24.17-16.12 48.3-40.46 49.51-23.14 2.26-45.72-16.68-47.16-39.93-2.41-19.98 10.98-40 30.04-45.99z m8.45 28.66c-8.54 3.14-12.07 15.09-5.87 22.05 6.05 8.78 20.79 6.55 24.46-3.29 5.4-10.92-7.57-24.14-18.59-18.76zM255.96 448.79c25.31-7.68 54.37 9.93 59.16 35.94 6.19 25.44-12.43 53.26-38.41 57-25.76 5.2-53.03-14.91-55.38-41.14-3.24-22.75 12.33-46.22 34.63-51.8z m6.15 31.91c-10.72 4.35-12.24 21.09-2.03 26.9 8.53 6.53 22.14 0.41 23.73-10.02 2.73-11.68-11.01-22.62-21.7-16.88zM609.08 651.32c25.25-8.3 54.75 9.81 58.57 36.14 5.08 23.78-12.27 49.21-36.17 53.4-23.72 5.6-49.52-11.2-54.26-35.03-5.79-22.92 9.13-48.27 31.86-54.51z m6.12 31.06c-10.18 4.86-10.58 21.13-0.4 26.21 7.87 5.26 19.5 0.15 21.87-8.77 4.3-11.9-10.61-24.23-21.47-17.44zM391.31 714.67c26.54-8.74 57.48 10.45 61.41 38.12 5.1 24.87-13.03 51.35-37.96 55.8-26.03 6.19-54.32-13.51-57.57-40.06-4.13-23.25 11.41-47.61 34.12-53.86z m6.42 32.57c-10.8 5.03-11.16 22.32-0.39 27.58 9.26 6.13 22.96-1.52 23.38-12.39 1.55-11.74-12.83-21.38-22.99-15.19zM260.62 876.16c23.05-8.04 50.7 5.61 58.03 28.94 8.35 22.47-4.13 49.77-26.6 58.12-23.02 9.77-52.11-2.99-60.37-26.6-9.73-23.69 4.38-53.25 28.94-60.46z m6.35 31.25c-10.35 5.7-8.88 22.68 2.22 26.66 10.02 4.96 22.77-5.18 20.71-15.99-1.17-10.36-14.27-16.68-22.93-10.67zM682.43 882.82c27.44-8.2 58.22 13.97 59.2 42.51 2.78 26.59-21.04 51.88-47.72 50.62-23.91 0.44-45.48-20.03-46.77-43.78-1.99-22.13 13.65-44.14 35.29-49.35z m6.5 31.48c-10.91 3.85-13.56 19.93-3.78 26.52 8.26 7.25 22.61 1.61 24.38-9.02 3.02-11.19-10.07-22.33-20.6-17.5z" fill="currentColor" p-id="6309"></path><path d="M794.1 530.37c-1.52 0.13-3.05 0.2-4.57 0.2-13.04 0-26.11-4.87-36.52-13.74-11.51-9.81-18.67-23.62-19.72-37.97-0.79-7.18-0.08-14.31 1.88-21.04-27.78-5.94-55.57-12-83.42-17.66-31.6-52.4-61.64-105.79-93.45-158.07-19.89-17.24-41.98-34.36-68.59-39.48-11.46-1.01-24.18-3.48-34.58 3-58.03 32.77-116.02 65.66-174.1 98.37-2.35 1.09-4.09 2.78-5.23 5.1-24.13 44.83-48.72 89.44-72.83 134.27-6.59 12.37-3.31 28.73 7.14 37.94 3.49 3.32 7.76 5.35 12.29 6.71-5.73-7.82-9.32-16.92-10.27-26.42-3.62-27.28 14.81-54.77 41.34-61.67 13.97-4.1 29.35-2.19 42.63 5.22 8.69-15.88 17.32-31.82 25.93-47.76 1.39-2.63 2.9-5.38 5.78-6.61 21.43-12.14 42.86-24.26 64.32-36.38-13.03 54.58-24.76 109.55-31.5 165.29-2.15 16.91-2.1 34.08-5.78 50.79-8.84 51.22-17.62 102.44-26.48 153.65-0.66 5.2-4.75 8.86-7.52 13.03-37.41 51.02-74.8 102.03-112.1 153.12-8.38 12.55-16.36 28.8-10.02 43.9 5.95 12.24 18.68 18 31.49 21.25-3.61-4.53-6.49-9.59-8.45-15.02-5.64-14.13-4.93-30.43 1.98-44.82 6.89-14.36 19.14-25.08 33.65-29.49 13.77-4.66 29.43-3.43 43.03 3.4 8.28 4.16 15.33 10.17 20.58 17.36 3.35-3.42 6.07-7.48 9.18-11.11 17.19-20.92 34.23-41.95 51.58-62.73a59.1 59.1 0 0 1-9.15-5.21c-13.14-9.14-21.79-22.98-23.79-38.04-4.58-27.36 13.23-55.49 39.97-63.12 13.42-4.29 28.14-2.97 41.22 3.54 2.43-14.9 4.99-29.76 7.35-44.67 38.32 26.63 76.99 52.83 115.03 79.87 19.97 57.66 38.29 115.99 57.71 173.87 5 13.63 7.19 29.08 17.57 40.01 8.56 9.65 20.97 14.79 33.68 15.57-13.36-9.66-22.67-24.97-23.7-42.01-2.23-26.8 16.22-52.64 42.22-59.17 5.29-1.53 10.74-2.17 16.16-2.01-14.08-42.94-28.08-85.91-41.93-128.91-6.21 4.26-13.19 7.23-20.49 8.59-3.74 0.84-7.58 1.25-11.42 1.25-10.6 0-21.31-3.14-30.64-9.13-12.8-8.23-21.8-21.06-24.77-35.27-5.34-22.01 4.08-45.2 21.65-58.34-23.76-15.46-47.35-31.1-71.12-46.5 4.39-16.84 9.79-33.47 12.34-50.71 8.53-49.58 17.29-99.13 25.75-148.73 16 26.81 31.6 53.87 47.53 80.73 4.72 8.41 13.33 14.16 22.84 15.68 56.37 11.56 112.71 23.22 169.1 34.71 11.54 1.44 21.76-5.43 27.76-14.93-8.43 6.07-18.32 9.7-28.54 10.3z" fill="currentColor" p-id="6310"></path></svg>